# xmcd
#
# Track frame offsets:
#	150
#	25727
#	46290
#	59452
#	76497
#	94970
#	109317
#	126165
#	140702
#	162082
#	199260
#	211625
#
# Disc length: 3019 seconds
#
# Revision: 0
# Processed by: cddbd v1.4PL0 Copyright (c) Steve Scherf et al.
# Submitted via: EasyCDDAExtractor 5.0.4.1
#
DISCID=a80bc90c
DTITLE=Butch Baldassari - Bluegrass Mandolin
DYEAR=1900
DGENRE=Bluegrass
TTITLE0=Consider This
TTITLE1=Minorsville
TTITLE2=Boone County Kentucky
TTITLE3=Perseverance Blues
TTITLE4=Old Jericho Waltz
TTITLE5=Wagons HO
TTITLE6=Sleepy Gap - Tucker
TTITLE7=King Wilkie
TTITLE8=Down City - Part 1
TTITLE9=It's Rainin' The Blues
TTITLE10=Leaving Portland
TTITLE11=A Place In The Heart
EXTD=
EXTT0=
EXTT1=
EXTT2=
EXTT3=
EXTT4=
EXTT5=
EXTT6=
EXTT7=
EXTT8=
EXTT9=
EXTT10=
EXTT11=
PLAYORDER=
